<svg width="32" height="28" viewBox="0 0 32 28" fill="none" xmlns="http://www.w3.org/2000/svg">
<path d="M0 4.2097C0.355032 2.92953 1.39977 2.27221 2.49541 1.70106C4.18658 0.825868 6.0241 0.395042 7.91506 0.169781C10.2327 -0.119989 12.5837 -0.0426586 14.8757 0.398735C16.67 0.750781 18.4031 1.28008 19.9009 2.34853C20.2173 2.57767 20.507 2.83934 20.7649 3.12894C21.5132 3.96105 21.503 4.88425 20.7649 5.72374C20.0523 6.53616 19.1272 7.05192 18.1397 7.4729C16.2411 8.28162 14.2357 8.66198 12.178 8.79C9.64696 8.94879 7.14646 8.74691 4.70831 8.01943C3.5516 7.67354 2.44196 7.22302 1.45703 6.52385C0.772418 6.03148 0.20742 5.46279 0 4.63191V4.2097Z" fill="#FFB81C"/>
<path d="M0 9.16675C0.650257 9.50033 1.28652 9.86592 1.95459 10.1626C3.68012 10.927 5.50746 11.3418 7.3806 11.5843C8.86831 11.7666 10.3694 11.8255 11.8675 11.7603C12.3765 11.7431 12.8855 11.6902 13.4276 11.652C13.3863 11.7249 13.3408 11.7956 13.2914 11.8637C12.6316 12.669 12.0855 13.5556 11.6677 14.5004C11.6092 14.6333 11.5532 14.7306 11.361 14.7343C8.816 14.7835 6.31423 14.5127 3.9079 13.651C2.85935 13.2756 1.86678 12.8017 1.01801 12.0742C0.531558 11.6768 0.177382 11.1492 0 10.5577L0 9.16675Z" fill="#FFB81C"/>
<path d="M6.6746e-05 20.9565C1.00619 21.5612 2.07712 22.0585 3.19409 22.4398C4.91636 23.0131 6.70894 23.3652 8.52593 23.4873C9.45869 23.5513 10.3965 23.5415 11.3255 23.5723C11.3728 23.5714 11.4198 23.5799 11.4635 23.5972C11.5073 23.6146 11.5469 23.6405 11.58 23.6732C12.089 24.5755 12.598 25.4839 13.1172 26.4206C12.3931 26.4539 11.6207 26.5093 10.847 26.5191C8.50939 26.5499 6.22268 26.2508 4.01359 25.4839C3.09657 25.1829 2.23043 24.7528 1.4431 24.2074C0.76994 23.7249 0.215122 23.1574 -0.00756836 22.3475L6.6746e-05 20.9565Z" fill="#FFB81C"/>
<path d="M0 15.032C1.65427 16.098 3.48288 16.7282 5.40438 17.1455C7.03274 17.4885 8.69314 17.6691 10.3596 17.6846C10.4868 17.6846 10.6039 17.6846 10.7095 17.6846V20.5921C10.2539 20.5921 9.77675 20.6179 9.30974 20.5921C6.94413 20.4468 4.64723 20.0136 2.51958 18.9513C1.65427 18.5143 0.837317 17.9973 0.318129 17.164C0.192628 16.926 0.0862701 16.6791 0 16.4254L0 15.032Z" fill="#FFB81C"/>
<path d="M32.0001 19.1508C32.0018 20.8996 31.4675 22.6097 30.4646 24.0648C29.4618 25.5199 28.0354 26.6547 26.3658 27.3256C24.6963 27.9966 22.8586 28.1737 21.085 27.8345C19.3114 27.4952 17.6817 26.6549 16.4018 25.4198C15.1219 24.1846 14.2493 22.6101 13.8944 20.8953C13.5395 19.1805 13.7182 17.4024 14.4079 15.7859C15.0976 14.1693 16.2674 12.7869 17.7692 11.8133C19.2711 10.8398 21.0377 10.3189 22.8456 10.3164C24.0465 10.3146 25.2359 10.5418 26.346 10.9849C27.4561 11.4279 28.4651 12.0783 29.3152 12.8987C30.1654 13.7191 30.8401 14.6936 31.3008 15.7663C31.7615 16.8391 31.9991 17.9892 32.0001 19.1508Z" fill="#FFB81C"/>
</svg>
