<svg width="31" height="30" viewBox="0 0 31 30" fill="none" xmlns="http://www.w3.org/2000/svg">
<path d="M13.9582 29.6069C13.8148 29.5406 13.7153 29.4976 13.6176 29.4492C9.31504 27.2979 5.01039 25.1466 0.703647 22.9953C0.233952 22.7632 0 22.4109 0 21.8821C0.00358546 17.5795 0.00358546 13.2749 0 8.96811C0 8.89282 0.00717093 8.81752 0.0125491 8.70996C0.145211 8.77002 0.255464 8.81573 0.362132 8.86951C4.77584 11.0752 9.19074 13.279 13.6068 15.4811C13.8757 15.6156 13.9654 15.7644 13.9654 16.0637C13.9546 20.4464 13.9522 24.829 13.9582 29.2116V29.6069Z" fill="#FFB81C"/>
<path d="M16.1048 29.6017V29.2432C16.1048 24.8372 16.1024 20.4316 16.0977 16.0263C16.0977 15.752 16.1873 15.6193 16.4275 15.4983C20.8538 13.2944 25.2773 11.087 29.6982 8.87595C29.8049 8.82307 29.9151 8.77646 30.0568 8.70923V9.07584C30.0568 13.3246 30.0583 17.5734 30.0612 21.8222C30.0612 22.3905 29.83 22.7669 29.3217 23.0206C25.0066 25.1719 20.6936 27.3276 16.3827 29.4879C16.3083 29.5237 16.224 29.5524 16.1048 29.6017Z" fill="#FFB81C"/>
<path d="M28.9529 6.82844C28.8185 6.90283 28.7253 6.95841 28.6284 7.00771C24.198 9.22412 19.7676 11.442 15.3371 13.6614C15.2441 13.7167 15.1379 13.7458 15.0297 13.7458C14.9215 13.7458 14.8153 13.7167 14.7222 13.6614C12.9107 12.7445 11.0937 11.8391 9.27859 10.9293C9.18089 10.8809 9.08497 10.828 8.95142 10.7572C9.10021 10.681 9.20778 10.6245 9.31624 10.5708C13.727 8.36391 18.1377 6.15527 22.5484 3.94483C22.651 3.88409 22.768 3.85205 22.8872 3.85205C23.0064 3.85205 23.1235 3.88409 23.226 3.94483C25.0179 4.84209 26.8169 5.73845 28.6123 6.63482C28.7181 6.6895 28.8194 6.75135 28.9529 6.82844Z" fill="#FFB81C"/>
<path d="M1.09351 6.83278C1.26023 6.74314 1.36242 6.68219 1.47267 6.62841C5.76507 4.48131 10.0569 2.33213 14.3481 0.180847C14.8222 -0.0575859 15.2444 -0.0629641 15.7141 0.180847C17.194 0.938277 18.6856 1.6733 20.1727 2.42176C20.2623 2.46479 20.3412 2.5114 20.4604 2.58132C20.3331 2.65034 20.239 2.70501 20.1422 2.75431C15.7016 4.97372 11.2583 7.19342 6.81232 9.41342C6.68862 9.47527 6.49501 9.52815 6.38834 9.47616C4.63953 8.61207 2.8961 7.73452 1.09351 6.83278Z" fill="#FFB81C"/>
</svg>
