<svg width="32" height="32" viewBox="0 0 32 32" fill="none" xmlns="http://www.w3.org/2000/svg">
<path d="M32 2.85454V7.6706C31.9757 7.74774 31.9559 7.82621 31.9405 7.90561C31.4771 11.1886 29.1265 13.6241 25.8773 14.1724C25.6761 14.2061 25.608 14.279 25.59 14.4858C25.5328 15.1477 25.507 15.8214 25.3606 16.4661C24.6648 19.5431 22.8832 21.7819 20.0418 23.1497C19.4297 23.4442 18.7682 23.6361 18.099 23.886C18.459 24.9686 18.8243 26.0703 19.1948 27.191H19.5471C20.5981 27.191 21.6496 27.191 22.7016 27.191C23.5345 27.191 24.0511 27.5615 24.3235 28.3425C24.6585 29.3045 24.9925 30.267 25.3254 31.23C25.4123 31.4838 25.482 31.7431 25.5602 32H6.4382C6.43713 31.9487 6.44213 31.8974 6.45307 31.8472C6.87576 30.6291 7.29062 29.4087 7.72975 28.2007C7.96458 27.5537 8.47024 27.2411 9.13872 27.2004C9.45182 27.1816 9.76493 27.1965 10.078 27.1965H12.8013L13.9159 23.8422C13.764 23.8014 13.6451 23.7709 13.5245 23.7372C10.4952 22.8614 8.36144 20.9714 7.12311 18.0673C6.64093 16.9314 6.43115 15.7368 6.40767 14.5069C6.40767 14.3166 6.36149 14.214 6.1431 14.1748C2.43517 13.5136 0.0039138 10.6011 0 6.83084C0 5.67148 0 4.51473 0 3.36059C0 2.15422 0.570632 1.58629 1.78391 1.58316C3.19288 1.58316 4.59558 1.58316 6.00142 1.58316H6.40532V0H25.6072V1.58237H26.0033C27.4122 1.58237 28.8149 1.57297 30.2208 1.59021C30.541 1.59352 30.8585 1.65017 31.1601 1.75785C31.654 1.93802 31.8505 2.38766 32 2.85454ZM19.198 15.9875C18.9428 14.9621 18.708 14.0126 18.4669 13.0679C18.4385 12.9803 18.4332 12.8869 18.4512 12.7967C18.4693 12.7064 18.5103 12.6223 18.5702 12.5525C19.2473 11.6673 19.9111 10.7727 20.578 9.88044C20.6367 9.8021 20.6883 9.71594 20.7737 9.58825H20.3823C19.497 9.58825 18.6117 9.58042 17.7272 9.59452C17.5033 9.59452 17.3976 9.52088 17.3107 9.32034C16.9381 8.45865 16.5499 7.61028 16.1656 6.75643C16.1249 6.65851 16.0708 6.56137 15.9988 6.4235C15.9268 6.56685 15.8744 6.66399 15.829 6.76426C15.4454 7.61811 15.0556 8.46962 14.6846 9.32896C14.5961 9.53341 14.4834 9.6 14.2642 9.59608C13.5464 9.58277 12.8279 9.5906 12.1093 9.5906H11.2256C11.314 9.72299 11.3672 9.80759 11.4267 9.88749C12.0936 10.7797 12.7574 11.6743 13.4329 12.5603C13.4934 12.6298 13.5344 12.7141 13.5519 12.8046C13.5694 12.8952 13.5626 12.9887 13.5324 13.0757C13.4102 13.5058 13.3093 13.9421 13.2012 14.3761C13.0737 14.8931 12.9484 15.4101 12.8099 15.9875C13.8188 15.4321 14.7668 14.9182 15.7061 14.3847C15.9229 14.2617 16.0841 14.268 16.2971 14.3886C17.2387 14.9182 18.189 15.4321 19.198 15.9875ZM25.6322 4.80196V11.0108C25.7739 10.9771 25.8874 10.9599 25.9931 10.9231C27.0373 10.5659 27.7934 9.87574 28.3163 8.91222C29.0263 7.60715 28.7461 6.19633 28.8095 4.80196H25.6322ZM3.19523 4.80196C3.19523 5.47878 3.20462 6.12269 3.19523 6.76583C3.17331 8.03329 3.61792 9.1057 4.53609 9.97209C5.04912 10.4686 5.68301 10.8221 6.3748 10.9975V4.79882L3.19523 4.80196Z" fill="#FFB81C"/>
</svg>
