<svg width="45" height="25" viewBox="0 0 45 25" fill="none" xmlns="http://www.w3.org/2000/svg">
<path d="M24.7007 15.2702C30.1014 15.2702 35.5071 15.2702 40.9178 15.2702C41.3668 15.2565 41.816 15.2821 42.2605 15.3467C43.6932 15.6077 44.4463 16.5739 44.7178 17.93C45.0178 19.4302 44.6743 20.7699 43.3481 21.6325C41.8944 22.5791 40.3477 23.3803 38.8641 24.2864C38.0482 24.7793 37.1074 25.0262 36.1547 24.9975C28.4107 24.9735 20.6667 24.9735 12.9227 24.9975C12.1554 25.0156 11.3985 24.8175 10.7384 24.4259C9.2472 23.5348 7.71851 22.7082 6.23781 21.8095C5.52402 21.3795 4.98085 20.716 4.70033 19.9313C4.41982 19.1466 4.41921 18.2891 4.69861 17.504C5.18168 16.0683 6.30982 15.2987 7.97804 15.2987C13.5518 15.2927 19.126 15.2927 24.7007 15.2987V15.2702ZM18.2754 20.1578C18.2815 19.818 18.2206 19.4803 18.0962 19.164C17.9718 18.8477 17.7863 18.559 17.5503 18.3143C17.3143 18.0697 17.0325 17.874 16.7208 17.7383C16.4092 17.6026 16.0739 17.5296 15.734 17.5235C15.3942 17.5174 15.0565 17.5783 14.7402 17.7027C14.4239 17.8271 14.1352 18.0126 13.8905 18.2486C13.6459 18.4845 13.4502 18.7664 13.3145 19.078C13.1788 19.3897 13.1058 19.725 13.0997 20.0648C13.0874 20.7512 13.3482 21.4143 13.8248 21.9083C14.3014 22.4024 14.9547 22.6868 15.641 22.6992C16.3274 22.7115 16.9905 22.4507 17.4845 21.9741C17.9786 21.4975 18.263 20.8442 18.2754 20.1578ZM32.7043 17.5175C32.363 17.5126 32.0243 17.5763 31.7081 17.7048C31.3919 17.8332 31.1047 18.0238 30.8635 18.2652C30.6224 18.5067 30.4321 18.7941 30.304 19.1104C30.1759 19.4268 30.1127 19.7656 30.1179 20.1068C30.1213 20.7859 30.3898 21.4369 30.8662 21.9209C31.3426 22.4048 31.9893 22.6836 32.6682 22.6977C33.3578 22.6978 34.0198 22.4274 34.5121 21.9446C35.0045 21.4619 35.2877 20.8052 35.3011 20.1158C35.3017 19.7746 35.2349 19.4365 35.1047 19.1211C34.9744 18.8057 34.7831 18.5191 34.5419 18.2777C34.3007 18.0364 34.0142 17.845 33.6988 17.7145C33.3835 17.584 33.0455 17.5171 32.7043 17.5175ZM21.6028 20.0678C21.599 20.4092 21.6626 20.748 21.79 21.0648C21.9173 21.3816 22.1058 21.6702 22.3448 21.914C22.5838 22.1579 22.8685 22.3522 23.1826 22.4859C23.4968 22.6196 23.8342 22.69 24.1756 22.6932C24.8633 22.6877 25.5214 22.4132 26.0091 21.9283C26.4967 21.4435 26.7751 20.7869 26.7845 20.0993C26.7841 19.419 26.5146 18.7665 26.0348 18.2842C25.555 17.8019 24.9039 17.529 24.2237 17.525C23.8827 17.5139 23.543 17.5717 23.2248 17.6948C22.9067 17.818 22.6166 18.004 22.372 18.2418C22.1273 18.4795 21.9331 18.7642 21.801 19.0787C21.6688 19.3932 21.6014 19.7312 21.6028 20.0723V20.0678Z" fill="#FFB81C"/>
<path d="M9.01644 9.83388C9.01644 9.32682 8.99994 8.91726 9.01644 8.50921C9.05095 7.83712 9.22197 7.6691 9.90156 7.60909C10.1251 7.58959 10.3516 7.59109 10.5751 7.59109H39.7749C39.979 7.59109 40.186 7.60159 40.39 7.6196C40.8806 7.6646 41.1296 7.94964 41.1401 8.4312C41.1506 8.91276 41.1401 9.35832 41.1401 9.90739C41.6607 9.90739 42.1032 9.90739 42.5443 9.90739C43.0409 9.90739 43.3199 10.1549 43.3244 10.6575C43.3319 11.6296 43.3244 12.6077 43.3244 13.5754C43.3244 14.1154 43.0139 14.3465 42.5143 14.3765C42.3088 14.3885 42.1032 14.3765 41.8962 14.3765C30.1637 14.3765 18.4302 14.3715 6.69564 14.3615C6.32344 14.3448 5.95215 14.4105 5.60829 14.5539C5.26442 14.6973 4.95645 14.9149 4.70638 15.1911C4.34784 15.5721 3.97279 15.9412 3.59324 16.2997C3.21369 16.6583 2.81914 16.6613 2.45009 16.2997C1.736 15.6006 1.0254 14.89 0.318313 14.1679C-0.0672376 13.7749 -0.0372337 13.3698 0.343816 12.9858C1.24393 12.0857 2.11255 11.1526 3.05617 10.3004C3.34121 10.0439 3.82277 9.90889 4.22182 9.89089C5.5855 9.82938 6.95218 9.84588 8.31885 9.83388H9.01644Z" fill="#FFB81C"/>
<path d="M13.4043 5.27919C13.1042 5.26118 12.8267 5.23268 12.5477 5.23268C10.6394 5.23268 8.73116 5.23268 6.82441 5.23268C6.63993 5.22156 6.45522 5.25054 6.28301 5.31761C6.11079 5.38468 5.95514 5.48827 5.82678 5.62123C5.57614 5.83785 5.25786 5.96039 4.92666 5.96778C3.61699 6.00528 2.30732 5.99028 0.997651 5.98128C0.30006 5.96928 0.037526 5.72925 0.0150231 5.03615C-0.0494853 2.96439 0.0150229 2.96289 1.85426 2.98389C2.8834 2.99589 3.91253 2.99889 4.93866 3.0409C5.19525 3.05261 5.44221 3.14208 5.64675 3.29743C6.00572 3.59639 6.46444 3.74858 6.93092 3.72348C8.88118 3.69948 10.8209 3.71298 12.7667 3.71298H13.3518C13.3983 3.63347 13.4298 3.60347 13.4328 3.57196C13.5288 2.2773 13.5438 2.34631 14.8129 2.25329C16.2801 2.14678 17.7353 1.87224 19.198 1.69672C19.9931 1.60221 20.7942 1.5572 21.5983 1.5002C21.8549 1.48069 22.1129 1.5002 22.3574 1.5002C22.6575 0 22.6575 0 24.1577 0C25.6579 0 27.1881 0 28.7033 0C29.7444 0 29.8359 0.100513 29.9499 1.13715C29.9604 1.22716 29.9829 1.31567 29.9964 1.38618C30.0549 1.41918 30.0894 1.45369 30.1194 1.45069C30.955 1.33817 31.3721 1.77773 31.6511 2.51133C31.9152 3.20892 32.2737 3.869 32.5903 4.54709C32.6533 4.68211 32.7163 4.81713 32.7688 4.95665C33.2323 6.1658 32.8768 6.71037 31.5986 6.71187C28.0072 6.71787 24.4152 6.71787 20.8227 6.71187H14.9165C13.6248 6.71487 13.5288 6.62786 13.4043 5.27919Z" fill="#FFB81C"/>
</svg>
