<svg width="28" height="33" viewBox="0 0 28 33" fill="none" xmlns="http://www.w3.org/2000/svg">
<path d="M0.689405 32.6663C0.136821 32.4046 -0.0102576 31.9546 0.000544798 31.3494C0.110231 25.4878 4.46858 20.2773 10.095 19.3312C10.8007 19.2191 11.5131 19.1576 12.2272 19.1471C13.4911 19.119 14.7574 19.1011 16.0197 19.1471C20.8143 19.3278 24.3242 21.6607 26.6218 25.9386C27.525 27.6212 27.9189 29.4606 27.9979 31.3784C28.022 31.975 27.8466 32.408 27.3098 32.6637L0.689405 32.6663Z" fill="#FFB81C"/>
<path d="M13.9955 17.2261C12.3342 17.225 10.7105 16.7185 9.32992 15.7706C7.94932 14.8227 6.87387 13.4761 6.23967 11.901C5.60547 10.3259 5.44101 8.59331 5.76712 6.92236C6.09323 5.2514 6.89524 3.71722 8.07166 2.51396C9.24808 1.3107 10.746 0.49245 12.376 0.162746C14.0059 -0.166958 15.6946 0.00670656 17.2282 0.661763C18.7619 1.31682 20.0717 2.42383 20.9918 3.8427C21.912 5.26157 22.4011 6.92853 22.3973 8.63263C22.3881 10.9131 21.4992 13.0971 19.9248 14.7074C18.3505 16.3176 16.2188 17.2231 13.9955 17.2261Z" fill="#FFB81C"/>
</svg>
