<svg width="26" height="26" viewBox="0 0 26 26" fill="none"
    xmlns="http://www.w3.org/2000/svg">
    <path d="M13 26C20.1797 26 26 20.1797 26 13C26 5.8203 20.1797 0 13 0C5.8203 0 0 5.8203 0 13C0 20.1797 5.8203 26 13 26Z" fill="url(#paint0_linear_95_2200)"/>
    <path fill-rule="evenodd" clip-rule="evenodd" d="M5.88448 12.8627C9.67424 11.2116 12.2013 10.123 13.4658 9.5971C17.076 8.09548 17.8262 7.83463 18.3152 7.82602C18.4227 7.82413 18.6632 7.85078 18.8189 7.97716C18.9504 8.08388 18.9866 8.22804 19.0039 8.32922C19.0212 8.4304 19.0428 8.66089 19.0257 8.84098C18.83 10.8966 17.9835 15.885 17.5528 18.1873C17.3706 19.1615 17.0118 19.4881 16.6644 19.5201C15.9095 19.5896 15.3362 19.0212 14.605 18.5419C13.4608 17.7919 12.8145 17.325 11.7038 16.5931C10.4203 15.7473 11.2524 15.2824 11.9838 14.5227C12.1753 14.3239 15.5015 11.2984 15.5659 11.0239C15.574 10.9896 15.5814 10.8617 15.5054 10.7941C15.4294 10.7265 15.3172 10.7496 15.2363 10.768C15.1215 10.7941 13.2937 12.0022 9.75279 14.3924C9.23397 14.7486 8.76403 14.9222 8.34299 14.9131C7.87882 14.9031 6.98595 14.6507 6.32219 14.4349C5.50807 14.1703 4.86102 14.0304 4.91736 13.5809C4.94671 13.3468 5.26908 13.1074 5.88448 12.8627Z" fill="white"/>
    <defs>
        <linearGradient id="paint0_linear_95_2200" x1="13" y1="0" x2="13" y2="25.8072" gradientUnits="userSpaceOnUse">
            <stop stop-color="#0E0E0E"/>
            <stop offset="1" stop-color="#121212"/>
        </linearGradient>
    </defs>
</svg>
