<svg width="26" height="26" viewBox="0 0 26 26" fill="none"
    xmlns="http://www.w3.org/2000/svg">
    <path d="M8.17648 23.5631C17.9878 23.5631 23.3542 15.4345 23.3542 8.38536C23.3542 8.15448 23.3542 7.92464 23.3386 7.69584C24.3826 6.94071 25.2838 6.00572 26 4.93464C25.0265 5.36624 23.9937 5.64916 22.9362 5.77392C24.0498 5.10733 24.8833 4.05877 25.2814 2.82344C24.2343 3.44485 23.0887 3.88275 21.8941 4.11824C21.0898 3.26303 20.0261 2.69673 18.8675 2.50698C17.709 2.31723 16.5202 2.5146 15.4851 3.06855C14.4501 3.6225 13.6264 4.50214 13.1416 5.57137C12.6569 6.64059 12.538 7.83978 12.8034 8.98336C10.6826 8.87697 8.6079 8.32581 6.71391 7.36565C4.81992 6.40548 3.14899 5.05777 1.8096 3.41C1.12746 4.58433 0.918528 5.9745 1.22536 7.29746C1.53219 8.62042 2.3317 9.7767 3.46112 10.5309C2.61217 10.506 1.7817 10.277 1.04 9.8632V9.9308C1.04034 11.1624 1.46667 12.3559 2.24669 13.309C3.02672 14.2621 4.1124 14.9161 5.3196 15.1599C4.53427 15.3741 3.71028 15.4054 2.91096 15.2514C3.25197 16.3113 3.91563 17.2381 4.80918 17.9023C5.70272 18.5665 6.78148 18.9349 7.89464 18.9559C6.78864 19.8253 5.52209 20.468 4.16745 20.8474C2.8128 21.2268 1.39665 21.3354 0 21.167C2.43949 22.7324 5.27792 23.5628 8.17648 23.559" fill="white"/>
</svg>
