<svg width="9" height="11" viewBox="0 0 9 11" fill="none" xmlns="http://www.w3.org/2000/svg">
<path d="M4.5 5.25C5.86719 5.25 7 4.13672 7 2.75C7 1.38281 5.86719 0.25 4.5 0.25C3.11328 0.25 2 1.38281 2 2.75C2 4.13672 3.11328 5.25 4.5 5.25ZM6.23828 5.875H5.90625C5.47656 6.08984 5.00781 6.1875 4.5 6.1875C3.99219 6.1875 3.50391 6.08984 3.07422 5.875H2.74219C1.29688 5.875 0.125 7.06641 0.125 8.51172V9.3125C0.125 9.83984 0.535156 10.25 1.0625 10.25H7.9375C8.44531 10.25 8.875 9.83984 8.875 9.3125V8.51172C8.875 7.06641 7.68359 5.875 6.23828 5.875Z" fill="white"/>
</svg>
