<svg width="26" height="26" viewBox="0 0 26 26" fill="none"
    xmlns="http://www.w3.org/2000/svg">
    <g clip-path="url(#clip0_95_2194)">
        <path d="M25.4821 6.70082C25.3351 6.14769 25.0454 5.64286 24.642 5.23686C24.2386 4.83087 23.7357 4.53795 23.1835 4.38741C21.1508 3.84082 13.0258 3.84082 13.0258 3.84082C13.0258 3.84082 4.90076 3.84082 2.86803 4.38741C2.31585 4.53795 1.81289 4.83087 1.40949 5.23686C1.00608 5.64286 0.716388 6.14769 0.569393 6.70082C0.0257569 8.74241 0.0257568 12.9999 0.0257568 12.9999C0.0257568 12.9999 0.0257569 17.2574 0.569393 19.299C0.716388 19.8521 1.00608 20.357 1.40949 20.763C1.81289 21.1689 2.31585 21.4619 2.86803 21.6124C4.90076 22.159 13.0258 22.159 13.0258 22.159C13.0258 22.159 21.1508 22.159 23.1835 21.6124C23.7357 21.4619 24.2386 21.1689 24.642 20.763C25.0454 20.357 25.3351 19.8521 25.4821 19.299C26.0258 17.2574 26.0258 12.9999 26.0258 12.9999C26.0258 12.9999 26.0258 8.74241 25.4821 6.70082Z" fill="#0B0B0B"/>
        <path d="M10.3667 16.8661V9.13403L17.1621 13.0001L10.3667 16.8661Z" fill="#FEFEFE"/>
    </g>
    <defs>
        <clipPath id="clip0_95_2194">
            <rect width="26" height="26" fill="white"/>
        </clipPath>
    </defs>
</svg>
