<svg width="7" height="7" viewBox="0 0 7 7" fill="none"
    xmlns="http://www.w3.org/2000/svg">
    <path d="M6.46875 5.57422C6.64453 5.76953 6.64453 6.0625 6.46875 6.23828C6.27344 6.43359 5.98047 6.43359 5.80469 6.23828L3.5 3.91406L1.17578 6.23828C0.980469 6.43359 0.6875 6.43359 0.511719 6.23828C0.316406 6.0625 0.316406 5.76953 0.511719 5.57422L2.83594 3.25L0.511719 0.925781C0.316406 0.730469 0.316406 0.4375 0.511719 0.261719C0.6875 0.0664062 0.980469 0.0664062 1.15625 0.261719L3.5 2.60547L5.82422 0.28125C6 0.0859375 6.29297 0.0859375 6.46875 0.28125C6.66406 0.457031 6.66406 0.75 6.46875 0.945312L4.14453 3.25L6.46875 5.57422Z" fill="#312F28"/>
</svg>
